<?xml version="1.0" standalone="no"?>
<!DOCTYPE svg PUBLIC "-//W3C//DTD SVG 20010904//EN"
 "http://www.w3.org/TR/2001/REC-SVG-20010904/DTD/svg10.dtd">
<svg version="1.0" xmlns="http://www.w3.org/2000/svg"
 width="78.000000pt" height="97.000000pt" viewBox="0 0 78.000000 97.000000"
 preserveAspectRatio="xMidYMid meet">
<metadata>
Created by potrace 1.15, written by Peter Selinger 2001-2017
</metadata>
<g transform="translate(0.000000,97.000000) scale(0.100000,-0.100000)"
fill="#000000" stroke="none">
<path d="M319 790 c-101 -30 -149 -133 -149 -318 0 -218 74 -314 231 -299 84
7 133 41 167 115 22 48 27 75 30 173 7 188 -25 281 -111 320 -43 19 -121 24
-168 9z m120 -109 c25 -25 41 -104 41 -204 0 -95 -13 -153 -43 -184 -26 -29
-79 -31 -106 -4 -25 25 -41 104 -41 199 1 145 31 212 97 212 19 0 41 -8 52
-19z"/>
</g>
</svg>
