<?xml version="1.0" standalone="no"?>
<!DOCTYPE svg PUBLIC "-//W3C//DTD SVG 20010904//EN"
 "http://www.w3.org/TR/2001/REC-SVG-20010904/DTD/svg10.dtd">
<svg version="1.0" xmlns="http://www.w3.org/2000/svg"
 width="78.000000pt" height="97.000000pt" viewBox="0 0 78.000000 97.000000"
 preserveAspectRatio="xMidYMid meet">
<metadata>
Created by potrace 1.15, written by Peter Selinger 2001-2017
</metadata>
<g transform="translate(0.000000,97.000000) scale(0.100000,-0.100000)"
fill="#000000" stroke="none">
<path d="M298 700 c-72 -47 -78 -53 -78 -85 0 -19 4 -36 8 -39 5 -3 34 8 65
25 l57 30 0 -196 0 -195 -60 0 c-55 0 -60 -2 -66 -25 -3 -14 -3 -36 0 -50 l6
-25 178 2 177 3 0 45 0 45 -52 3 -53 3 -2 252 -3 252 -50 3 c-45 2 -57 -3
-127 -48z"/>
</g>
</svg>
