<?xml version="1.0" standalone="no"?>
<!DOCTYPE svg PUBLIC "-//W3C//DTD SVG 20010904//EN"
 "http://www.w3.org/TR/2001/REC-SVG-20010904/DTD/svg10.dtd">
<svg version="1.0" xmlns="http://www.w3.org/2000/svg"
 width="78.000000pt" height="97.000000pt" viewBox="0 0 78.000000 97.000000"
 preserveAspectRatio="xMidYMid meet">
<metadata>
Created by potrace 1.15, written by Peter Selinger 2001-2017
</metadata>
<g transform="translate(0.000000,97.000000) scale(0.100000,-0.100000)"
fill="#000000" stroke="none">
<path d="M364 773 c-6 -5 -57 -87 -113 -185 -99 -170 -102 -178 -99 -230 l3
-53 127 -3 127 -3 3 -62 3 -62 50 0 50 0 3 63 3 62 33 0 c28 0 35 5 40 25 4
14 4 36 0 50 -5 20 -12 25 -40 25 l-34 0 -2 188 -3 187 -70 3 c-38 1 -75 -1
-81 -5z m46 -243 l0 -130 -80 0 c-44 0 -80 2 -80 4 0 4 107 188 136 234 8 12
17 22 19 22 3 0 5 -58 5 -130z"/>
</g>
</svg>
