<?xml version="1.0" standalone="no"?>
<!DOCTYPE svg PUBLIC "-//W3C//DTD SVG 20010904//EN"
 "http://www.w3.org/TR/2001/REC-SVG-20010904/DTD/svg10.dtd">
<svg version="1.0" xmlns="http://www.w3.org/2000/svg"
 width="78.000000pt" height="97.000000pt" viewBox="0 0 78.000000 97.000000"
 preserveAspectRatio="xMidYMid meet">
<metadata>
Created by potrace 1.15, written by Peter Selinger 2001-2017
</metadata>
<g transform="translate(0.000000,97.000000) scale(0.100000,-0.100000)"
fill="#000000" stroke="none">
<path d="M330 781 c-82 -27 -117 -66 -104 -117 3 -13 8 -24 9 -24 2 0 26 11
53 25 56 28 108 32 139 10 42 -29 37 -101 -9 -127 -13 -7 -50 -15 -83 -18
l-60 -5 0 -40 0 -40 73 -6 c61 -4 77 -10 99 -32 34 -34 37 -88 6 -119 -29 -29
-104 -35 -163 -13 -65 24 -75 23 -78 -4 -11 -73 44 -106 178 -106 94 1 150 22
189 71 28 36 44 99 36 142 -8 44 -62 100 -104 108 l-31 7 32 16 c45 23 70 62
75 118 5 60 -19 110 -65 137 -37 21 -150 31 -192 17z"/>
</g>
</svg>
